# AST/ASF file generated using VICON BodyLanguage
# -----------------------------------------------
:version 1.10
:name VICON
:units
  mass 1.0
  length 0.45
  angle deg
:documentation
   .ast/.asf automatically generated from VICON data using
   VICON BodyBuilder and BodyLanguage model FoxedUp or BRILLIANT.MOD
:root
   order TX TY TZ RX RY RZ
   axis XYZ
   position 0 0 0  
   orientation 0 0 0 
:bonedata
  begin
     id 1 
     name lhipjoint
     direction 0.602128 -0.715006 0.355257 
     length 2.21237 
     axis 0 0 0  XYZ
  end
  begin
     id 2 
     name lfemur
     direction 0.34202 -0.939693 0  
     length 6.71649  
     axis 0 0 20  XYZ
    dof rx ry rz
    limits (-160.0 20.0)
           (-70.0 70.0)
           (-60.0 70.0)
  end
  begin
     id 3 
     name ltibia
     direction 0.34202 -0.939693 0   
     length 6.97123   
     axis 0 0 20   XYZ
    dof rx
    limits (-10.0 170.0)
  end
  begin
     id 4 
     name lfoot
     direction 0.0655697 -0.180151 0.981451   
     length 1.80924   
     axis -90 7.62852e-016 20   XYZ
    dof rx rz
    limits (-45.0 90.0)
           (-70.0 20.0)
  end
  begin
     id 5 
     name ltoes
     direction 1.53545e-011 -4.21827e-011 1   
     length 0.916331   
     axis -90 7.62852e-016 20   XYZ
    dof rx
    limits (-90.0 20.0)
  end
  begin
     id 6 
     name rhipjoint
     direction -0.625414 -0.698792 0.347201   
     length 2.2637  
     axis 0 0 0  XYZ 
  end
  begin
     id 7 
     name rfemur
     direction -0.34202 -0.939693 0   
     length 7.07595   
     axis 0 0 -20   XYZ
    dof rx ry rz
    limits (-160.0 20.0)
           (-70.0 70.0)
           (-70.0 60.0)
  end
  begin
     id 8 
     name rtibia
     direction -0.34202 -0.939693 0   
     length 7.22924   
     axis 0 0 -20   XYZ
    dof rx
    limits (-10.0 170.0)
 end
 begin
     id 9 
     name rfoot
     direction -0.0766747 -0.210662 0.974547   
     length 1.98482  
     axis -90 -7.62852e-016 -20   XYZ
    dof rx rz
    limits (-45.0 90.0)
           (-20.0 70.0)
  end
  begin
     id 10 
     name rtoes
     direction -1.53532e-011 -4.21867e-011 1   
     length 0.999842   
     axis -90 -7.62852e-016 -20   XYZ
    dof rx
    limits (-90.0 20.0)
  end
  begin
     id 11 
     name lowerback
     direction -0.0224668 0.997354 -0.0691422   
     length 2.09945   
     axis 0 0 0   XYZ
    dof rx ry rz
    limits (-20.0 45.0)
           (-30.0 30.0)
           (-30.0 30.0)
  end
  begin
     id 12 
     name upperback
     direction 0.0134698 0.998451 -0.0539888   
     length 2.09758   
     axis 0 0 0   XYZ
    dof rx ry rz
    limits (-20.0 45.0)
           (-30.0 30.0)
           (-30.0 30.0)
  end
  begin
     id 13 
     name thorax
     direction 0.0241905 0.99948 -0.0213333   
     length 2.10428   
     axis 0 0 0   XYZ
    dof rx ry rz
    limits (-20.0 45.0)
           (-30.0 30.0)
           (-30.0 30.0)
  end
  begin
     id 14 
     name lowerneck
     direction -0.00866847 0.995978 0.0891737   
     length 1.3959   
     axis 0 0 0   XYZ
    dof rx ry rz
    limits (-20.0 45.0)
           (-30.0 30.0)
           (-30.0 30.0)
  end
  begin
     id 15 
     name upperneck
     direction 0.0680679 0.992203 0.104404   
     length 1.39452   
     axis 0 0 0   XYZ
    dof rx ry rz
    limits (-20.0 45.0)
           (-30.0 30.0)
           (-30.0 30.0)
  end
  begin
     id 16
     name head
     direction 0.0242216 0.999358 0.0264054  
     length 1.40433  
     axis 0 0 0   XYZ
    dof rx ry rz
    limits (-20.0 45.0)
           (-30.0 30.0)
           (-30.0 30.0)
  end
  begin
     id 17 
     name lclavicle
     direction 0.929368 0.362991 -0.0671771  
     length 3.04887  
     axis 0 0 0   XYZ
    dof ry rz
    limits (-20.0 10.0)
           (0.0 20.0)
  end
  begin
     id 18 
     name lhumerus
     direction 1 -4.48967e-011 -7.13741e-028   
     length 4.77195   
     axis -180 -30 -90   XYZ
    dof rx ry rz
    limits (-60.0 90.0)
           (-90.0 90.0)
           (-90.0 90.0)
  end
  begin
     id 19
     name lradius
     direction 1 -4.48977e-011 3.60404e-027   
     length 2.98444   
     axis -180 -30 -90   XYZ
    dof rx
    limits (-10.0 170.0)
  end
  begin
     id 20
     name lwrist
     direction 1 -4.48997e-011 7.54877e-027   
     length 1.49222   
     axis -7.18178e-015 90 90   XYZ
    dof ry
    limits (-180.0 0.0)
 end
  begin
     id 21 
     name lhand
     direction 1 -4.489e-011 1.51105e-026   
     length 0.992285   
     axis -9.63605e-015 90 90   XYZ
    dof rx rz
    limits (-90.0 90.0)
           (-45.0 45.0)
  end
  begin
     id 22 
     name lfingers
     direction 1 -4.48998e-011 3.01948e-026   
     length 0.800006   
     axis -1.92718e-014 90 90   XYZ
    dof rx
    limits (0.0 90.0)
  end
  begin
     id 23
     name lthumb
     direction 0.707107 -6.34881e-011 0.707107   
     length 1.14865   
     axis -90 45 -3.53137e-014   XYZ
    dof rx rz
    limits (-45.0 45.0)
           (-45.0 45.0)
  end
  begin
     id 24 
     name rclavicle
     direction -0.945672 0.324529 0.0196374   
     length 3.4236  
     axis 0 0 0   XYZ 
    dof ry rz
    limits (-10.0 20.0)
           (-20.0 0.0)
  end
  begin
     id 25 
     name rhumerus
     direction -1 -4.4896e-011 1.02757e-029  
     length 4.62052   
     axis -180 30 90   XYZ
    dof rx ry rz
    limits (-90.0 60.0)
           (-90.0 90.0)
           (-90.0 90.0)
  end
  begin
     id 26 
     name rradius
     direction -1 -4.48982e-011 3.85962e-027   
     length 2.95332   
     axis -180 30 90   XYZ
    dof rx
    limits (-10.0 170.0)
  end
  begin
     id 27 
     name rwrist
     direction -1 -4.48961e-011 7.55118e-027   
     length 1.47666   
     axis -7.18178e-015 -90 -90   XYZ
    dof ry
    limits (-180.0 0.0)
  end
  begin
     id 28
     name rhand
     direction -1 -4.48984e-011 1.50994e-026   
     length 0.990956   
     axis -9.63605e-015 -90 -90   XYZ
    dof rx rz
    limits (-90.0 90.0)
           (-45.0 45.0)
  end
  begin
     id 29
     name rfingers
     direction -1 -4.4892e-011 3.02158e-026   
     length 0.798934   
     axis -1.92718e-014 -90 -90   XYZ
    dof rx
    limits (0.0 90.0)
  end
  begin
     id 30
     name rthumb
     direction -0.707107 -6.34916e-011 0.707107   
     length 1.14711   
     axis -90 -45 3.53137e-014   XYZ
    dof rx rz
    limits (-45.0 45.0)
           (-45.0 45.0)
  end
:hierarchy
  begin
    root lhipjoint rhipjoint lowerback
    lhipjoint lfemur
    lfemur ltibia
    ltibia lfoot
    lfoot ltoes
    rhipjoint rfemur
    rfemur rtibia
    rtibia rfoot
    rfoot rtoes
    lowerback upperback
    upperback thorax
    thorax lowerneck lclavicle rclavicle
    lowerneck upperneck
    upperneck head
    lclavicle lhumerus
    lhumerus lradius
    lradius lwrist
    lwrist lhand lthumb
    lhand lfingers
    rclavicle rhumerus
    rhumerus rradius
    rradius rwrist
    rwrist rhand rthumb
    rhand rfingers
  end

#!OML:ASF H:\ManfredObstacles\Project 1\Capture day 1\Session 1\Male.ASF
:FULLY-SPECIFIED
:DEGREES
237
root 0.415769 16.4294 4.14438 -170.713 -9.00131 -179.659
lowerback -9.83112 -3.34534 -3.28485
upperback 1.6762 -4.13868 1.08915
thorax 7.61289 -2.19112 2.31422
lowerneck -0.512286 -2.34005 -5.70845
upperneck -6.67372 -2.29164 10.4066
head -1.86551 -1.06067 4.52798
rclavicle 3.66137e-014 -1.10325e-014
rhumerus -45.0196 -30.8336 -65.475
rradius 22.9417
rwrist 37.5875
rhand -0.464814 -8.35164
rfingers 7.12502
rthumb 25.1451 -36.7156
lclavicle 3.66137e-014 -1.10325e-014
lhumerus -21.1086 3.58269 86.7228
lradius 20.7308
lwrist -26.3705
lhand -8.5285 9.01604
lfingers 7.12502
lthumb 17.4003 38.2572
rfemur -36.6096 -6.05514 19.6547
rtibia 22.4807
rfoot -12.4786 3.92646
rtoes 13.42
lfemur 3.29357 -0.403749 -20.2902
ltibia 3.18055e-015
lfoot -4.4433 -11.3453
ltoes -11.2873
238
root 0.448319 16.408 3.92285 -170.855 -9.39091 -179.897
lowerback -9.87999 -3.46803 -3.53604
upperback 1.71033 -4.27207 1.126
thorax 7.71033 -2.26958 2.46652
lowerneck -0.566688 -2.3787 -5.80637
upperneck -6.66648 -2.35224 10.3454
head -1.84715 -1.08794 4.52424
rclavicle 4.65902e-014 -3.97569e-016
rhumerus -45.367 -31.1857 -64.9467
rradius 22.8404
rwrist 38.0466
rhand -0.579846 -8.25347
rfingers 7.12502
rthumb 25.0349 -36.6329
lclavicle 4.65902e-014 -3.97569e-016
lhumerus -21.0751 3.40479 87.0011
lradius 20.6876
lwrist -26.2403
lhand -8.48354 8.85209
lfingers 7.12502
lthumb 17.4435 38.0894
rfemur -35.8739 -5.95935 19.4503
rtibia 21.615
rfoot -12.7312 3.85954
rtoes 14.3461
lfemur 4.29615 -1.3862 -20.3458
ltibia -1.59028e-014
lfoot -4.85516 -10.7404
ltoes -12.6329
239
root 0.482645 16.3847 3.69983 -170.944 -9.80575 -179.743
lowerback -10.0597 -3.52405 -3.31193
upperback 1.69814 -4.37779 1.22802
thorax 7.79887 -2.31458 2.42079
lowerneck -0.650056 -1.97699 -5.94314
upperneck -6.64065 -2.55853 10.3162
head -1.81378 -1.51057 4.55096
rclavicle -4.37016e-014 1.31695e-014
rhumerus -45.7695 -31.5272 -64.44
rradius 22.7707
rwrist 38.422
rhand -0.652301 -8.26701
rfingers 7.12502
rthumb 24.9654 -36.6561
lclavicle -4.37016e-014 1.31695e-014
lhumerus -21.1386 3.46203 87.2059
lradius 20.6509
lwrist -26.2736
lhand -8.38217 8.82137
lfingers 7.12502
lthumb 17.5411 38.05
rfemur -35.3305 -5.56716 19.5521
rtibia 21.2772
rfoot -12.2448 3.72701
rtoes 16.3681
lfemur 5.19861 -2.33381 -19.9655
ltibia -1.59028e-014
lfoot -5.02106 -10.1559
ltoes -13.8983
240
root 0.520852 16.3533 3.47558 -170.98 -10.1487 -179.511
lowerback -10.2593 -3.6297 -3.15604
upperback 1.62061 -4.55312 1.4571
thorax 7.85016 -2.39942 2.53554
lowerneck -0.65725 -1.98081 -6.00703
upperneck -6.558 -2.56236 10.1763
head -1.78519 -1.50098 4.51034
rclavicle 3.03706e-014 -4.27387e-015
rhumerus -46.05 -31.7076 -63.8579
rradius 22.6392
rwrist 38.8234
rhand -0.571292 -8.37589
rfingers 7.12502
rthumb 25.0431 -36.7541
lclavicle 3.03706e-014 -4.27387e-015
lhumerus -21.3745 3.91529 87.4058
lradius 20.628
lwrist -26.3997
lhand -8.4297 8.80564
lfingers 7.12502
lthumb 17.4953 38.0384
rfemur -34.5375 -5.58851 20.0786
rtibia 21.3951
rfoot -11.7957 3.6773
rtoes 14.9972
lfemur 6.04542 -3.20069 -19.4911
ltibia 9.54166e-015
lfoot -5.05821 -9.56903
ltoes -15.9368
241
root 0.563674 16.3381 3.24217 -171.089 -10.4129 -179.394
lowerback -10.4224 -3.77052 -3.24022
upperback 1.58658 -4.75041 1.7293
thorax 7.9546 -2.50865 2.82625
lowerneck -0.772176 -1.94469 -6.07749
upperneck -6.45901 -2.51186 9.92957
head -1.73733 -1.4587 4.42947
rclavicle -1.99157e-014 -5.96354e-016
rhumerus -46.122 -31.815 -63.2843
rradius 22.4585
rwrist 39.087
rhand -0.539433 -8.38237
rfingers 7.12502
rthumb 25.0736 -36.7564
lclavicle -1.99157e-014 -5.96354e-016
lhumerus -21.6547 4.49624 87.6129
lradius 20.5943
lwrist -26.562
lhand -8.51574 8.66635
lfingers 7.12502
lthumb 17.4125 37.9064
rfemur -33.8212 -5.47874 20.4785
rtibia 21.7451
rfoot -10.8426 3.06231
rtoes 15.6638
lfemur 7.00187 -4.0113 -19.1175
ltibia -9.54166e-015
lfoot -4.94361 -8.9956
ltoes -17.8818
242
root 0.607765 16.3416 3.00091 -171.201 -10.5934 -179.376
lowerback -10.7179 -3.86653 -3.23563
upperback 1.62194 -4.87872 1.80633
thorax 8.18001 -2.57562 2.86251
lowerneck -0.85932 -2.29872 -6.01153
upperneck -6.38801 -2.31902 9.79575
head -1.70719 -1.06285 4.35382
rclavicle 1.56046e-014 1.41137e-014
rhumerus -46.2083 -32.1718 -62.9104
rradius 22.3186
rwrist 39.3171
rhand -0.711182 -8.28056
rfingers 7.12502
rthumb 24.909 -36.6774
lclavicle 1.56046e-014 1.41137e-014
lhumerus -21.8508 5.08044 87.5569
lradius 20.5123
lwrist -26.9551
lhand -8.36008 8.5753
lfingers 7.12502
lthumb 17.5623 37.8021
rfemur -33.2796 -5.40595 20.7549
rtibia 22.2835
rfoot -8.37371 2.49288
rtoes 15.5115
lfemur 8.01582 -4.75889 -18.8566
ltibia 2.54444e-014
lfoot -4.50662 -8.49353
ltoes -19.2393
243
root 0.653844 16.3531 2.75576 -171.374 -10.6524 -179.184
lowerback -10.9626 -3.88633 -2.92376
upperback 1.60903 -4.94458 1.82581
thorax 8.28552 -2.59436 2.68179
lowerneck -0.80125 -2.19576 -5.9033
upperneck -6.40886 -2.19188 9.6296
head -1.73813 -1.0026 4.27363
rclavicle 1.24116e-014 1.33186e-014
rhumerus -46.5122 -32.7229 -62.455
rradius 22.1929
rwrist 39.7679
rhand -0.844045 -8.31935
rfingers 7.12502
rthumb 24.7817 -36.7338
lclavicle 1.24116e-014 1.33186e-014
lhumerus -22.1864 5.77205 87.3309
lradius 20.3224
lwrist -27.5073
lhand -8.25588 8.54867
lfingers 7.12502
lthumb 17.6626 37.7664
rfemur -32.7832 -5.4783 21.2685
rtibia 22.8842
rfoot -6.57884 2.55932
rtoes 18.4963
lfemur 9.06993 -5.36528 -18.4348
ltibia -3.18055e-015
lfoot -3.70629 -7.95628
ltoes -19.7276
244
root 0.700336 16.3642 2.51152 -171.572 -10.5524 -178.72
lowerback -11.1571 -3.84043 -2.36097
upperback 1.53694 -4.97255 1.95212
thorax 8.28223 -2.58614 2.48632
lowerneck -0.799037 -2.11153 -5.92134
upperneck -6.2311 -2.11259 9.48261
head -1.68795 -0.965585 4.22072
rclavicle 3.37685e-014 4.27387e-015
rhumerus -46.724 -33.2002 -61.9306
rradius 21.9633
rwrist 40.2119
rhand -0.832125 -8.60971
rfingers 7.12502
rthumb 24.7931 -37.0226
lclavicle 3.37685e-014 4.27387e-015
lhumerus -22.7773 6.59634 87.1131
lradius 20.1551
lwrist -27.9667
lhand -8.45562 8.51232
lfingers 7.12502
lthumb 17.4704 37.7473
rfemur -32.2321 -5.71386 22.1581
rtibia 23.4236
rfoot -6.62554 3.30386
rtoes 19.4655
lfemur 7.30801 -5.7475 -17.6996
ltibia 5.42776
lfoot -5.60273 -7.87691
ltoes -21.417
245
root 0.741216 16.3781 2.27196 -171.615 -10.3485 -178.231
lowerback -11.56 -3.79905 -1.85351
upperback 1.51262 -5.01307 2.19005
thorax 8.46715 -2.59233 2.42337
lowerneck -0.961346 -2.02708 -6.03682
upperneck -6.03059 -2.02544 9.34809
head -1.60029 -0.91798 4.18847
rclavicle 2.98798e-014 4.96962e-016
rhumerus -46.5479 -33.6847 -61.4228
rradius 21.6482
rwrist 40.7317
rhand -0.867145 -8.87914
rfingers 7.12502
rthumb 24.7595 -37.2966
lclavicle 2.98798e-014 4.96962e-016
lhumerus -23.3636 7.77985 86.9251
lradius 20.0565
lwrist -28.5795
lhand -8.7233 8.48523
lfingers 7.12502
lthumb 17.2128 37.7429
rfemur -31.6675 -6.15747 23.1047
rtibia 23.8362
rfoot -6.93184 4.46891
rtoes 20.7861
lfemur 5.90516 -6.01763 -17.0177
ltibia 9.76334
lfoot -5.95172 -7.39144
ltoes -24.6511
246
root 0.779346 16.3945 2.04014 -171.596 -10.0392 -177.822
lowerback -11.8829 -3.7284 -1.35886
upperback 1.43753 -5.0151 2.38643
thorax 8.54577 -2.57866 2.33764
lowerneck -1.04506 -1.91065 -6.24738
upperneck -5.94121 -1.88026 9.3233
head -1.56744 -0.841309 4.21839
rclavicle 9.34288e-015 1.98785e-015
rhumerus -46.3847 -34.1057 -60.972
rradius 21.43
rwrist 41.1796
rhand -0.893199 -9.07307
rfingers 7.12502
rthumb 24.7346 -37.494
lclavicle 9.34288e-015 1.98785e-015
lhumerus -23.9962 8.95372 86.6349
lradius 19.8543
lwrist -29.1852
lhand -8.81948 8.44059
lfingers 7.12502
lthumb 17.1202 37.7063
rfemur -31.0466 -6.68683 23.962
rtibia 24.1234
rfoot -7.2868 5.91283
rtoes 23.9494
lfemur 4.34144 -6.18633 -16.495
ltibia 14.2439
lfoot -5.81445 -6.91291
ltoes -24.5474
